{"accessors":[{"bufferView":0,"componentType":5125,"count":2999979,"max":[513562],"min":[0],"type":"SCALAR"},{"bufferView":1,"componentType":5126,"count":513563,"max":[18.898595809936523,-1.296002984046936,15.640128135681152],"min":[-10.7481107711792,-3.644853115081787,-8.414810180664062],"type":"VEC3"},{"bufferView":2,"componentType":5126,"count":513563,"max":[0.9985840320587158,1.0,0.9998000264167786],"min":[-0.999064028263092,-0.9997385740280151,-0.9998639822006226],"type":"VEC3"},{"bufferView":3,"componentType":5126,"count":513563,"max":[0.9999290108680725,0.9999079999979585],"min":[7.999999979801942e-06,0.004664003849029541],"type":"VEC2"}],"asset":{"generator":"Soft8Soft Verge3D for Blender add-on","version":"2.0"},"bufferViews":[{"buffer":0,"byteLength":11999916,"byteOffset":0,"target":34963},{"buffer":0,"byteLength":6162756,"byteOffset":11999916,"target":34962},{"buffer":0,"byteLength":6162756,"byteOffset":18162672,"target":34962},{"buffer":0,"byteLength":4108504,"byteOffset":24325428,"target":34962}],"buffers":[{"byteLength":28433932,"uri":"byrda.bin"}],"cameras":[{"extensions":{"S8S_v3d_camera_data":{"controls":"ORBIT","enablePan":true,"moveSpeed":1.0,"orbitMaxDistance":100.0,"orbitMaxPolarAngle":3.1415927410125732,"orbitMinDistance":0.0,"orbitMinPolarAngle":0.0,"orbitTarget":[0.0,0.0,-0.0],"rotateSpeed":1.0,"viewportFitInitialAspect":1.7777777777777777,"viewportFitType":"AUTO"}},"name":"Camera","perspective":{"aspectRatio":1.7777777777777777,"yfov":0.39959652046304894,"zfar":1000.0,"znear":0.0010000000474974513},"type":"perspective"}],"extensions":{"S8S_v3d_data":{"lights":[{"color":[1.0,0.9626210331916809,0.9335126280784607],"intensity":10.0,"name":"Light","profile":"blender","shadow":{"bias":-0.0018,"cameraFar":100,"cameraFov":0,"cameraNear":0.1,"csm":{"maxDistance":1000.0},"enabled":true,"expBias":2.5,"mapSize":1024,"radius":1.0,"slopeScaledBias":2.5},"type":"directional"}]}},"extensionsUsed":["S8S_v3d_texture_data","S8S_v3d_material_data","S8S_v3d_camera_data","S8S_v3d_data","S8S_v3d_mesh_data","S8S_v3d_node_data","S8S_v3d_scene_data"],"images":[{"uri":"byrda2.png"}],"materials":[{"extensions":{"S8S_v3d_material_data":{"nodeGraph":{"edges":[{"fromNode":0,"fromOutput":0,"toInput":0,"toNode":1},{"fromNode":2,"fromOutput":0,"toInput":0,"toNode":0}],"nodes":[{"inputs":[[1.0,1.0,1.0,1.0],0.0,[1.0,0.20000000298023224,0.10000000149011612],[0.800000011920929,0.800000011920929,0.800000011920929,1.0],0.0,0.0,0.0,1.0,0.0,0.0,0.0,0.5,0.0,0.029999999329447746,1.4500000476837158,0.0,0.0,[0.0,0.0,0.0,1.0],1.0,[0.0,0.0,0.0],[0.0,0.0,0.0],[0.0,0.0,0.0]],"is_active_output":false,"name":"Principled BSDF","outputs":[[0,0,0,0]],"type":"BSDF_PRINCIPLED_BL"},{"inputs":[[0,0,0,0],[0,0,0,0],[0.0,0.0,0.0]],"is_active_output":true,"name":"Material Output","outputs":[],"type":"OUTPUT_MATERIAL_BL"},{"inputs":[[0.0,0.0,0.0]],"is_active_output":false,"name":"Image Texture","outputs":[[0.0,0.0,0.0,0.0],0.0],"projection":"FLAT","projectionBlend":0.0,"texture":0,"type":"TEX_IMAGE_BL"}]},"useCastShadows":true}},"name":"byrda2"}],"meshes":[{"extensions":{"S8S_v3d_mesh_data":{"colorLayers":{},"uvLayers":{"UVMap":"TEXCOORD_0"}}},"name":"byrda2","primitives":[{"attributes":{"NORMAL":2,"POSITION":1,"TEXCOORD_0":3},"indices":0,"material":0,"mode":4}]}],"nodes":[{"extensions":{"S8S_v3d_node_data":{"frustumCulling":true,"groupNames":["Collection"],"hidden":false,"renderOrder":0,"useShadows":true}},"mesh":0,"name":"byrda2","rotation":[-0.018432170152664185,0.0,-0.0,0.9998301267623901],"translation":[0.0,3.626532793045044,-0.0]},{"camera":0,"extensions":{"S8S_v3d_node_data":{"frustumCulling":true,"groupNames":["Collection"],"hidden":false,"renderOrder":0}},"name":"Camera","rotation":[-0.03700694069266319,-0.9080810546875,-0.08216799795627594,0.4089837968349457],"scale":[1.0000001192092896,1.0,0.9999998807907104],"translation":[-16.591106414794922,7.278309345245361,-14.864208221435547]},{"extensions":{"S8S_v3d_node_data":{"frustumCulling":true,"groupNames":["Collection"],"hidden":false,"light":0,"renderOrder":0}},"name":"Light","rotation":[0.4055662751197815,-0.6181299090385437,-0.608053982257843,0.2893124222755432],"scale":[1.000000238418579,1.000000238418579,1.0],"translation":[4.076245307922363,5.903861999511719,-1.0054539442062378]}],"samplers":[{}],"scene":0,"scenes":[{"extensions":{"S8S_v3d_scene_data":{"aaMethod":"AUTO","iblEnvironmentMode":"PMREM","pmremMaxTileSize":512,"shadowMap":{"esmDistanceScale":1.0,"renderReverseSided":false,"renderSingleSided":true,"type":"PCFPOISSON"},"toneMapping":{"type":"filmicBlender"}}},"extras":{"animFrameRate":25,"coordSystem":"Z_UP_RIGHT"},"name":"Scene","nodes":[2,1,0]}],"textures":[{"extensions":{"S8S_v3d_texture_data":{"colorSpace":"srgb"}},"name":"byrda2.tif","sampler":0,"source":0}]}
